<svg xmlns="http://www.w3.org/2000/svg" version="1.1" xmlns:xlink="http://www.w3.org/1999/xlink" xmlns:svgjs="http://svgjs.dev/svgjs" width="100%" height="100%" viewBox="0 0 1000 600"><rect width="1000" height="600" x="0" y="0" fill="#e7e1da"/><g><rect width="333.3333333333333" height="333.3333333333333" rx="13.333333333333334" ry="13.333333333333334" y="249.39955510844783" fill="#45649c" transform="matrix(0.5502309644624591,0,0,0.5502309644624591,0,71.06748049634948)" x="227.17738342285153"/><path d="M346.14705230033974 388.8464667263158L345.8140889246998 389.01294841413574L346.14705230033974 388.8464667263158ZM377.4931758070161 433.3684266690306Q379.03907719391594 432.67871681949066 380.75146026863575 432.67871681949066L380.75146026863575 432.67871681949066Q384.8421531693553 432.67871681949066 387.339378486655 437.6493843558301Q389.81282070569466 442.6200518921695 389.81282070569466 448.4231278676088L389.81282070569466 448.4231278676088Q389.81282070569466 451.51493064140845 388.9566291683348 453.7505418778482L388.9566291683348 453.7505418778482Q386.3880545562551 460.40980939064747 380.5611954825558 465.9037050887068Q374.7581195071164 471.37381768850616 366.5291675091574 477.03419507438554L366.5291675091574 477.03419507438554Q358.49048029727834 482.33782598636486 347.5978212941996 486.7139160662044Q336.72894538938084 491.06622304778386 327.4773201662419 491.06622304778386L327.4773201662419 491.06622304778386Q313.6117738806635 491.06622304778386 308.9978528182241 480.10221474992517L308.9978528182241 480.10221474992517Q306.26279651832436 473.9423923005858 306.26279651832436 464.524285389627L306.26279651832436 464.524285389627Q306.26279651832436 452.7040855544083 310.11565843644394 440.1228265748698Q313.9685203545635 427.5415675953313 320.6277878673627 410.2512551603133L320.6277878673627 410.2512551603133Q327.31083847842194 393.29390610093526 336.56246370156083 377.977590821497Q345.8140889246998 362.6374924437988 356.94457891037854 362.6374924437988L356.94457891037854 362.6374924437988Q359.84611689809816 362.6374924437988 362.24820982235786 363.85043045505864L362.24820982235786 363.85043045505864Q364.1270745848977 350.8172926085802 370.97660688377687 344.6574701592409L370.97660688377687 344.6574701592409Q375.2575645705764 341.06622232198134 378.349367344376 341.06622232198134L378.349367344376 341.06622232198134Q381.9406151816356 341.06622232198134 383.8194799441754 345.3471800087808L383.8194799441754 345.3471800087808Q385.0324179554353 348.43898278258047 385.0324179554353 353.2193855328399L385.0324179554353 353.2193855328399Q385.0324179554353 355.6214784570996 384.6756714815353 359.7359544560791L384.6756714815353 359.7359544560791L384.5091897937153 364.87310368023856Q384.1762264180753 377.3592302667371 382.9632884068155 389.86913995149564L382.9632884068155 389.86913995149564Q381.9406151816356 401.1661116249943 377.99262087047606 411.4404100733131Q374.0684096575765 421.71470852163196 365.5064942839775 422.57090005899187L365.5064942839775 422.57090005899187Q361.225536597178 423.09412822071175 358.5618295920583 418.12346068437233Q355.9219056851986 413.1527931480329 352.9965845992189 403.56820454925406L352.9965845992189 403.56820454925406Q351.11771983667916 397.4083820999148 349.8334325306393 394.2452300313351Q348.5491452245995 391.0582948644955 347.0032438376997 389.5361765758557L347.0032438376997 389.5361765758557Q337.2521735511008 406.8264890108737 332.6144693904013 427.3750859075113L332.6144693904013 427.3750859075113L331.7582778530414 430.7998520569509Q330.4026412522216 436.9596745062902 329.61779900964166 440.9790181122297Q328.8567398653218 444.99836171816924 328.8567398653218 448.9463560293288L328.8567398653218 448.9463560293288Q328.8567398653218 457.67475309074774 333.3041792399412 460.9330375523674L333.3041792399412 460.9330375523674Q336.3959820137409 463.50161216444707 342.0325763013602 463.50161216444707L342.0325763013602 463.50161216444707Q345.8140889246998 463.50161216444707 350.2615282993193 462.3124572514472L350.2615282993193 462.3124572514472Q354.70896767393873 461.2660009280074 359.67963521027815 459.0541727898276L359.67963521027815 459.0541727898276Q361.225536597178 458.36446294028764 364.29355627271764 456.6520798655679L364.29355627271764 456.6520798655679Q365.6729759717975 456.4855981777479 365.6729759717975 455.62940664038797L365.6729759717975 455.62940664038797Q365.6729759717975 454.9396967908481 364.8167844344376 454.2499869413081L364.8167844344376 454.2499869413081Q365.14974781007754 452.7040855544083 365.5064942839775 449.96902925450865L365.5064942839775 449.96902925450865Q365.8394576596175 447.40045464242894 366.3626858213374 445.68807156770913Q366.86213088479735 443.9756884929894 368.0750688960572 442.09682373044956L368.0750688960572 442.09682373044956Q372.5225082706767 435.58025480721034 377.4931758070161 433.3684266690306L377.4931758070161 433.3684266690306ZM474.57578290432485 403.0449763875341L475.5984561295047 402.8784946997141Q478.1670307415844 402.8784946997141 479.7129321284843 404.7573594622539L479.7129321284843 404.7573594622539Q481.42531520320404 406.6600073230537 481.42531520320404 410.0847734724933L481.42531520320404 410.0847734724933Q481.42531520320404 411.7971565472131 480.7356053536641 414.53221284711276L480.7356053536641 414.53221284711276Q479.8794138163042 418.6466888460923 477.5011039903045 422.14280429031186Q475.0990110660448 425.66270283279147 471.84072660442513 427.70804928315124L471.84072660442513 427.70804928315124Q469.7953801540654 428.9209872944111 467.7262506054456 429.34908306309103Q465.6809041550859 429.777178831771 462.58910138128624 430.11014220741095L462.58910138128624 430.11014220741095L461.3999464682864 430.27662389523095L460.87671830656643 430.27662389523095L461.3999464682864 443.2859786434494Q462.7555830691062 442.95301526780946 463.2788112308262 442.95301526780946L463.2788112308262 442.95301526780946Q464.1350027681861 442.95301526780946 465.1576759933659 443.2859786434494L465.1576759933659 443.2859786434494Q468.0829970793456 443.80920680516937 469.2721519923454 446.3777814172491L469.2721519923454 446.3777814172491Q470.29482521752533 448.25664617978885 470.29482521752533 450.9917024796885L470.29482521752533 450.9917024796885Q470.29482521752533 452.53760386658837 469.96186184188537 454.9396967908481L469.96186184188537 454.9396967908481Q469.7953801540654 455.462924952568 469.7953801540654 456.3191164899279L469.7953801540654 456.3191164899279Q469.10567030452546 462.4789389392672 467.46463652458567 467.44960647560663Q465.84738584290585 472.396490913686 462.58910138128624 476.67744860048555L462.58910138128624 476.67744860048555Q455.04985923286705 485.9290738236245 448.2003269339879 485.9290738236245L448.2003269339879 485.9290738236245Q447.011172020988 485.9290738236245 446.3214621714481 485.7625921358045L446.3214621714481 485.7625921358045Q442.39725095854857 484.9064005984446 440.92269886642873 481.64811613682497Q439.4719298725689 478.38983167520536 438.97248480910895 474.2991387744858L438.97248480910895 474.2991387744858Q437.59306511002916 463.83457554008703 437.59306511002916 450.65873910404855L437.59306511002916 450.65873910404855L437.7595467978491 437.12615619411014L437.7595467978491 435.7705195932903L437.9260284856691 433.0116801951306L431.26676097286986 434.22461820639046Q426.1296117487105 435.4137731193903 422.0151357497309 436.7931928184702L422.0151357497309 436.7931928184702L420.6357160506511 437.4829026680101Q418.59036960029135 450.9917024796885 418.0671414385714 458.1979812524677L418.0671414385714 458.1979812524677Q417.73417806293145 460.9330375523674 417.73417806293145 466.40315015216675L417.73417806293145 466.40315015216675Q417.90065975075146 467.09286000170664 417.90065975075146 468.80524307642645L417.90065975075146 468.80524307642645Q417.90065975075146 470.3511444633263 417.73417806293145 471.2073360006862L417.73417806293145 471.2073360006862Q417.73417806293145 474.4656204623058 415.92666259517165 477.2958091552455Q414.1429302256719 480.10221474992517 411.2176091396922 481.48163444900496L411.2176091396922 481.48163444900496Q409.00578100151245 482.5043076741849 406.4372063894328 482.5043076741849L406.4372063894328 482.5043076741849Q401.7995022287333 482.5043076741849 398.54121776711366 479.43628799864524L398.54121776711366 479.43628799864524Q394.78348824203414 475.82125706312564 394.78348824203414 469.8279163016063L394.78348824203414 469.8279163016063L394.9499699298541 467.25934168952665Q395.47319809157403 458.36446294028764 396.92396708543384 449.5409334858287Q398.37473607929365 440.71740403136977 400.94331069137337 428.39775913269114L400.94331069137337 428.39775913269114Q403.01244023999317 417.43375083483244 403.8686317773531 411.9636382350331L403.8686317773531 411.9636382350331Q406.2469416033528 397.4083820999148 407.29339792679264 385.42170057687616L407.29339792679264 385.42170057687616Q407.95932467807256 377.882458428457 408.14958946415254 371.5561542912978L408.14958946415254 371.5561542912978L408.14958946415254 370.86644444175784Q408.31607115197255 367.27519660449826 408.91064860847246 364.87310368023856Q409.5052260649724 362.4710107559788 411.57435561359216 360.425664305619L411.57435561359216 360.425664305619L411.57435561359216 360.425664305619Q414.47589360131184 357.50034321963943 418.7568512881113 357.50034321963943L418.7568512881113 357.50034321963943Q423.2042906627308 357.50034321963943 426.1296117487105 360.425664305619L426.1296117487105 360.425664305619Q429.0311497364301 363.3272022933387 429.0311497364301 368.6308332053181L429.0311497364301 368.6308332053181Q429.0311497364301 371.3658895052178 428.86466804861016 372.57882751647765L428.86466804861016 372.57882751647765L428.6981863607902 373.43501905383755L427.6517300373503 386.11141042641606Q427.15228497389035 396.1954440886549 425.9393469626305 404.09143271097395L425.9393469626305 404.09143271097395Q425.6063835869905 407.51619886041357 424.58371036181063 412.98631146021296L424.58371036181063 412.98631146021296Q426.9858032860704 412.13011992285305 432.62239757368974 410.5842185359532L432.62239757368974 410.5842185359532L433.64507079886954 410.2512551603133Q436.2136454109493 409.7280269985933 438.11629327174904 409.0383171490534L438.11629327174904 409.0383171490534Q438.11629327174904 396.88515393819483 437.9260284856691 390.8918131766755L437.9260284856691 390.8918131766755L437.9260284856691 390.55884980103554Q437.9260284856691 375.3138838163773 438.28277495956905 367.7746416679582L438.28277495956905 367.7746416679582Q438.78222002302897 356.14470661881955 447.011172020988 350.31784754512023L447.011172020988 350.31784754512023L447.011172020988 350.31784754512023Q449.91271000870773 348.2487179965005 453.00451278250733 348.2487179965005L453.00451278250733 348.2487179965005Q455.73956908240706 348.2487179965005 457.61843384494676 350.1513658573003L457.61843384494676 350.1513658573003Q459.68756339356656 352.71994046938 459.68756339356656 356.8106333700995L459.68756339356656 356.8106333700995Q459.68756339356656 358.5230164448193 459.3308169196666 361.2818558429789L459.3308169196666 361.2818558429789Q459.1643352318466 361.94778259425885 459.1643352318466 363.16072060551875L459.1643352318466 363.16072060551875Q458.99785354402667 365.03958536805857 458.99785354402667 369.1540613670381L458.99785354402667 369.1540613670381Q458.99785354402667 372.2220810425777 459.3308169196666 378.73864996581693L459.3308169196666 378.73864996581693L459.52108170574655 383.54283581433634L459.68756339356656 390.55884980103554L460.1870084570265 404.94762424833385L473.386627991325 403.2352411736141L474.57578290432485 403.0449763875341Z " fill="#e7e1da" transform="matrix(0.5502309644624591,0,0,0.5502309644624591,0,71.06748049634948)"/><path d="M682.7054719398735 391.4678953691885L682.3810474240241 391.6301076271132L682.7054719398735 391.4678953691885ZM713.2477227891195 434.8480877741874Q714.7539794698486 434.17606556278514 716.4224484085024 434.17606556278514L716.4224484085024 434.17606556278514Q720.4082353175087 434.17606556278514 722.8414191863789 439.01926012082185Q725.2514298755455 443.8624546788586 725.2514298755455 449.5167105265187L725.2514298755455 449.5167105265187Q725.2514298755455 452.52922388797697 724.4171954062186 454.7075027801083L724.4171954062186 454.7075027801083Q721.9144919982378 461.1959930970953 716.2370629708743 466.54899760860957Q710.5828071232141 471.87882894042036 702.5648869457945 477.3940457098593L702.5648869457945 477.3940457098593Q694.732352206003 482.56166478374536 684.1190359017886 486.82552984919397Q673.5288927772776 491.06622173493906 664.5145258726064 491.06622173493906L664.5145258726064 491.06622173493906Q651.0045621054513 491.06622173493906 646.5089652429675 480.38338589161407L646.5089652429675 480.38338589161407Q643.844049577062 474.3815323484011 643.844049577062 465.20495318580515L643.844049577062 465.20495318580515Q643.844049577062 453.6878828731532 647.5981046890331 441.4292708099885Q651.3521598010042 429.17065874682373 657.8406501179912 412.32375710236107L657.8406501179912 412.32375710236107Q664.3523136146817 395.80127997374774 673.3666805193529 380.8777522446776Q682.3810474240241 365.931051335904 693.2260955252739 365.931051335904L693.2260955252739 365.931051335904Q696.0532234491039 365.931051335904 698.39371459916 367.11288350078377L698.39371459916 367.11288350078377Q700.2243957957385 354.413981023252 706.8982715503537 348.41212748003903L706.8982715503537 348.41212748003903Q711.0694438969882 344.91297734480673 714.0819572584464 344.91297734480673L714.0819572584464 344.91297734480673Q717.5811073936787 344.91297734480673 719.4117885902572 349.08414969144127L719.4117885902572 349.08414969144127Q720.593620755137 352.0966630528995 720.593620755137 356.75447217330805L720.593620755137 356.75447217330805Q720.593620755137 359.0949633233641 720.2460230595841 363.1039234120739L720.2460230595841 363.1039234120739L720.0838108016594 368.10933022803533Q719.75938628581 380.275249572386 718.5775541209302 392.46434209644013L718.5775541209302 392.46434209644013Q717.5811073936787 403.4716024556145 713.7343595628935 413.4824160875373Q709.9107849118119 423.4932297194601 701.5684402185428 424.327464188787L701.5684402185428 424.327464188787Q697.3972678719084 424.83727414226456 694.8018717451135 419.99407958422785Q692.2296487980224 415.15088502619113 689.3793476944887 405.81209360567055L689.3793476944887 405.81209360567055Q687.5486664979103 399.8102400624575 686.2973147939199 396.7282071618887Q685.0459630899296 393.62300108161634 683.5397064092004 392.13991758059075L683.5397064092004 392.13991758059075Q674.0387027307552 408.98681922505347 669.5199326885678 429.0084464888991L669.5199326885678 429.0084464888991L668.6856982192409 432.3453843662067Q667.36482697614 438.3472379094197 666.6001120459237 442.2635052793154Q665.8585702954109 446.1797726492111 665.8585702954109 450.02652047999624L665.8585702954109 450.02652047999624Q665.8585702954109 458.53107743118994 670.19195489997 461.7058030505729L670.19195489997 461.7058030505729Q673.2044682614284 464.2085064585536 678.6965118511638 464.2085064585536L678.6965118511638 464.2085064585536Q682.3810474240241 464.2085064585536 686.7144320285834 463.0498474733773L686.7144320285834 463.0498474733773Q691.0478166331426 462.03022756642224 695.8910111911792 459.8751218539944L695.8910111911792 459.8751218539944Q697.3972678719084 459.2030996425922 700.3866080536632 457.5346307039384L700.3866080536632 457.5346307039384Q701.7306524764675 457.3724184460137 701.7306524764675 456.5381839766868L701.7306524764675 456.5381839766868Q701.7306524764675 455.8661617652846 700.8964180071407 455.19413955388234L700.8964180071407 455.19413955388234Q701.22084252299 453.6878828731532 701.5684402185428 451.02296720724786L701.5684402185428 451.02296720724786Q701.8928647343922 448.5202637992671 702.4026746878698 446.8517948606133Q702.8893114616438 445.1833259219595 704.0711436265236 443.352644725381L704.0711436265236 443.352644725381Q708.4045282310827 437.0031934866152 713.2477227891195 434.8480877741874L713.2477227891195 434.8480877741874ZM770.3000912191982 391.7923198850379Q770.3000912191982 388.2931697498056 774.6334758237573 385.7904663418249Q778.99003360802 383.2877629338442 783.6478427284286 383.2877629338442L783.6478427284286 383.2877629338442Q786.4981438319621 383.2877629338442 788.1666127706159 384.3769023799099Q789.8350817092697 385.46604182597554 789.6496962716416 387.78335979632806L789.6496962716416 387.78335979632806Q789.3252717557922 402.15073121251356 789.0008472399428 431.16355220132687L789.0008472399428 431.16355220132687L788.1666127706159 474.72913004395394Q787.9812273329877 478.3904924371109 783.578323189318 481.0554081030163Q779.1522458659447 483.7203237689217 774.4712635658326 483.7203237689217L774.4712635658326 483.7203237689217Q771.481923384078 483.7203237689217 769.72076172661 482.4689720649313Q767.9596000691421 481.21762036094094 767.9596000691421 478.7149169529602L767.9596000691421 478.7149169529602L768.6316222805443 451.3705649028007Q767.9596000691421 451.5327771607254 766.6387288260412 451.5327771607254L766.6387288260412 451.5327771607254L763.3017909487336 451.3705649028007Q762.1199587838538 451.1851794651725 759.8026408135013 451.1851794651725L759.8026408135013 451.1851794651725Q758.6208086486215 451.1851794651725 756.9523397099678 451.5327771607254L756.9523397099678 451.5327771607254Q756.1181052406408 468.2174665472634 754.6118485599117 479.89674911784L754.6118485599117 479.89674911784Q754.2874240440623 483.3958992530723 749.5369222048397 486.06081491897766Q744.7864203656171 488.725730584883 740.105438065505 488.725730584883L740.105438065505 488.725730584883Q737.278310141675 488.725730584883 735.6793607421317 487.5670715997068Q734.1035845222921 486.4084126145305 734.2657967802166 484.0679214644745L734.2657967802166 484.0679214644745Q736.7685001881974 461.0337808391707 737.4405223995997 442.0086003025766L737.4405223995997 442.0086003025766L737.6027346575244 437.0031934866152Q738.1125446110019 422.4967829922085 738.1125446110019 417.8158006920965L738.1125446110019 417.8158006920965Q738.1125446110019 402.7995802442123 736.2586902347199 399.30043010898L736.2586902347199 399.30043010898Q733.5937745688144 399.4626423669047 732.1802106068994 398.3966761005425Q730.7666466449845 397.30753665447685 730.7666466449845 395.63906771582305L730.7666466449845 395.63906771582305Q730.7666466449845 393.97059877716924 732.0875178880854 392.13991758059075Q733.4315623108898 390.2860632043088 735.424455765393 389.12740421913253L735.424455765393 389.12740421913253Q741.7739070041588 385.62825408390023 746.2695038666427 385.62825408390023L746.2695038666427 385.62825408390023Q749.9540394395032 385.62825408390023 752.7811673633332 387.96874523395627L752.7811673633332 387.96874523395627Q757.1145519678923 391.6301076271132 757.1145519678923 403.3093901976898L757.1145519678923 403.3093901976898L756.9523397099678 411.65173489095883Q757.4621496634453 420.1562918421525 757.4621496634453 428.8462342309744L757.4621496634453 428.8462342309744L757.2999374055206 438.671662425269Q758.2963841327722 438.3472379094197 760.4514898452 438.671662425269Q762.6297687373313 439.01926012082185 763.7884277225075 439.01926012082185L763.7884277225075 439.01926012082185Q764.9702598873873 439.01926012082185 766.4765165681165 438.7643551440831Q767.9596000691421 438.5094501673443 769.1414322340219 438.3472379094197L769.1414322340219 438.3472379094197L770.3000912191982 391.7923198850379ZM837.2010610232749 419.4842696307503L832.7054641607909 431.00133994340223L831.3614197379866 434.33827782070983L843.0407023085633 444.18687919470796L841.8820433233869 439.34368463667124Q840.7233843382106 434.6858755162627 837.2010610232749 419.4842696307503L837.2010610232749 419.4842696307503ZM851.7306446973851 382.2913162065926Q854.071135847441 396.7977267009993 857.639805521784 411.7444276097729Q861.2316483758303 426.66795533884306 866.3992674497164 446.01756039128645L866.3992674497164 446.01756039128645Q871.2424620077531 464.3707187164783 872.7487186884822 470.37257225969125L872.7487186884822 470.37257225969125Q872.9109309464069 470.8823822131688 872.9109309464069 471.87882894042036L872.9109309464069 471.87882894042036Q872.9109309464069 475.88778902913015 868.4153340839231 478.80760967177434Q863.8965640417357 481.7274303144185 859.0765426634025 481.7274303144185L859.0765426634025 481.7274303144185Q855.0675825746927 481.7274303144185 852.8893036825613 479.54915142228714L852.8893036825613 479.54915142228714Q848.0461091245246 474.3815323484011 842.7162777927139 469.72372322799254Q837.3864464609031 465.04274092788046 828.6965040720812 458.2066529153406L828.6965040720812 458.2066529153406L823.2044604823458 453.6878828731532Q816.1829870321777 468.7041033210374 812.359412381096 475.88778902913015L812.359412381096 475.88778902913015Q811.1775802162163 478.3904924371109 806.264866119069 480.47607861042815Q801.3289788422181 482.56166478374536 797.1578064955837 482.56166478374536L797.1578064955837 482.56166478374536Q792.4999973751751 482.56166478374536 792.4999973751751 479.54915142228714L792.4999973751751 479.54915142228714Q792.4999973751751 478.7149169529602 792.9866341489491 477.556257967784L792.9866341489491 477.556257967784Q797.9920409649105 465.20495318580515 804.8513021571539 449.19228601066936L804.8513021571539 449.19228601066936L808.3504522923862 440.68772905947566Q804.1792799457517 436.5165567128412 804.1792799457517 436.5165567128412L804.1792799457517 436.5165567128412Q802.997447780872 435.3347245479614 802.997447780872 433.8516410469358L802.997447780872 433.8516410469358Q802.997447780872 431.00133994340223 806.6819833537324 428.42911699631094Q810.3433457468894 425.8337208695161 814.8621157890767 424.99948640018926L814.8621157890767 424.99948640018926Q822.8568627867928 405.81209360567055 829.878336236961 385.95267859974956L829.878336236961 385.95267859974956Q830.5271852686597 383.6121874496935 834.119028122706 381.87419897192916Q837.7108709767524 380.1130373144613 841.7198310654622 379.62640054068726L841.7198310654622 379.62640054068726Q844.5469589892923 378.7921660713603 846.5630256234989 378.7921660713603L846.5630256234989 378.7921660713603Q851.2208347439075 378.7921660713603 851.7306446973851 382.2913162065926L851.7306446973851 382.2913162065926ZM906.280309719483 426.34353082299367L911.1235042775196 422.3345707342839Q917.6351677742102 417.1669516603978 921.7136474020307 413.15799157168794Q925.8153002095545 409.1490314829781 927.9704059219824 405.1400713942683L927.9704059219824 405.1400713942683Q918.9560390173111 402.7995802442123 901.2749029035216 397.4697489124015L901.2749029035216 397.4697489124015L900.4406684341947 431.3489376389551Q905.446075250156 427.1777652923206 906.280309719483 426.34353082299367L906.280309719483 426.34353082299367ZM937.9812195539051 445.69313587543706Q939.3252639767096 443.0282202095317 943.6586485812687 441.1048462941391Q947.992033185828 439.18147237874655 952.0009932745378 439.18147237874655L952.0009932745378 439.18147237874655Q957.5162100439768 439.18147237874655 957.5162100439768 442.6806225139788L957.5162100439768 442.6806225139788Q957.5162100439768 443.6770692412304 957.0064000904993 445.0211136640349L957.0064000904993 445.0211136640349Q950.1703120779594 461.0337808391707 946.671161942727 476.05000128705484L946.671161942727 476.05000128705484Q945.8369274734001 479.38693916436245 941.8279673846904 482.237240267896L941.8279673846904 482.237240267896Q940.1594984460365 484.39234598032385 936.7298678499149 485.89860266105296Q933.3234104334966 487.4048593417821 929.986472556189 487.4048593417821L929.986472556189 487.4048593417821Q927.1361714526555 487.4048593417821 925.398182974891 486.22302717690235Q923.6370213174232 485.0643681917261 923.4748090594985 482.56166478374536L923.4748090594985 482.56166478374536Q922.8027868480963 471.71661668249567 916.3838160702198 462.7022497778244Q909.9648452923435 453.6878828731532 899.9540316604206 451.02296720724786L899.9540316604206 451.02296720724786L899.1197971910937 475.21576681772797Q898.9344117534655 478.3904924371109 893.8594853983935 481.0554081030163Q888.761385863618 483.7203237689217 884.1035767432095 483.7203237689217L884.1035767432095 483.7203237689217Q881.6008733352288 483.7203237689217 880.0946166544996 482.81656976048413Q878.5883599737706 481.8896425723432 878.5883599737706 479.89674911784L878.5883599737706 479.89674911784L879.0981699272481 456.86260849253614Q876.9198910351167 455.35635181180703 876.9198910351167 453.36345835730384L876.9198910351167 453.36345835730384Q876.9198910351167 451.02296720724786 879.4225944430974 448.86786149482003L879.4225944430974 448.86786149482003Q880.2568289124243 418.48782290349874 881.4154878976007 388.2931697498056L881.4154878976007 388.2931697498056Q881.6008733352288 384.7940196145733 886.1891629165267 382.19862348777855Q890.7774524978247 379.62640054068726 895.4352616182333 379.62640054068726L895.4352616182333 379.62640054068726Q898.9344117534655 379.62640054068726 900.4406684341947 381.29486947934106L900.4406684341947 381.29486947934106Q918.6316145014617 386.30027629530247 938.1434318118298 392.30212983851544L938.1434318118298 392.30212983851544Q941.1559451732882 391.6301076271132 942.3146041584645 391.6301076271132L942.3146041584645 391.6301076271132Q945.1649052619979 391.6301076271132 946.7406814818377 392.88145933110354Q948.3396308813809 394.1328110350939 948.3396308813809 396.6355144430746L948.3396308813809 396.6355144430746Q948.3396308813809 403.4716024556145 943.8208608391935 409.24172420179224Q939.3252639767096 414.98867276826644 931.3073437992899 421.986973038731L931.3073437992899 421.986973038731L927.9704059219824 424.99948640018926Q919.9756589242662 432.83202113998067 912.4675487003241 438.8570478628972L912.4675487003241 438.8570478628972Q926.1397247254039 442.6806225139788 934.482069418673 454.0354805687061L934.482069418673 454.0354805687061Q935.1540916300752 452.3670116300523 937.9812195539051 445.69313587543706L937.9812195539051 445.69313587543706ZM977.1902396122695 349.40857420729066Q977.5378373078223 346.2570217676112 982.5432441237838 343.6616256408164Q987.5486509397451 341.0662295140216 992.044247802229 341.0662295140216L992.044247802229 341.0662295140216Q997.3740791340398 341.0662295140216 997.2118668761151 345.0751896027314L997.2118668761151 345.0751896027314Q994.5469512102097 374.9454182405752 988.3828854090722 427.50218980816993L988.3828854090722 427.50218980816993Q984.3739253203622 463.37427198922666 983.1920931554824 474.0571078325517L983.1920931554824 474.0571078325517Q982.8676686396332 477.556257967784 977.9549545424859 480.31386635250345Q973.019067265635 483.0714747372229 968.3612581452265 483.0714747372229L968.3612581452265 483.0714747372229Q961.849594648536 483.0714747372229 962.3362314223099 478.22828017918624L962.3362314223099 478.22828017918624Q968.1758727075983 420.8283140535547 977.1902396122695 349.40857420729066L977.1902396122695 349.40857420729066ZM1006.2262337807864 391.9545321429626Q1006.3884460387111 388.61759426565493 1011.0694283388231 386.0453713185637Q1015.7272374592317 383.4499751917689 1020.4082197593438 383.4499751917689L1020.4082197593438 383.4499751917689Q1023.073135425249 383.4499751917689 1024.7416043639028 384.53911463783453Q1026.4100733025566 385.62825408390023 1026.247861044632 387.96874523395627L1026.247861044632 387.96874523395627L1021.4046664865954 478.5527046950356Q1021.2424542286706 482.0518548302678 1016.5614719285585 484.6472509570627Q1011.90366280815 487.24264708385743 1007.222680508038 487.24264708385743L1007.222680508038 487.24264708385743Q1001.0586147069004 487.24264708385743 1001.2208269648249 482.3994525258207L1001.2208269648249 482.3994525258207L1006.2262337807864 391.9545321429626ZM1005.901809264937 369.94001142461383Q1005.5542115693842 372.2805025746698 1007.1531609689274 373.43916155984607Q1008.7289371887671 374.62099372472585 1011.3938528546724 374.62099372472585L1011.3938528546724 374.62099372472585Q1015.9126228968598 374.62099372472585 1020.5704320172683 372.1182903167451Q1025.2514143173803 369.61558690876444 1025.7380510911544 366.0932635938286L1025.7380510911544 366.0932635938286Q1027.0820955139588 357.7509189005596 1027.5919054674364 353.57974655392513L1027.5919054674364 353.57974655392513Q1028.2407544991352 349.40857420729066 1022.4011132138469 349.40857420729066L1022.4011132138469 349.40857420729066Q1017.905516351363 349.40857420729066 1013.0623217933263 351.91127761527133Q1008.2191272352895 354.413981023252 1007.8947027194401 357.5887066426349L1007.8947027194401 357.5887066426349L1005.901809264937 369.94001142461383ZM1103.5072421761847 464.0462942006289Q1106.009945584165 464.8805286699558 1106.009945584165 467.03563438238365L1106.009945584165 467.03563438238365Q1106.009945584165 469.72372322799254 1102.835219964782 472.87527566767193L1102.835219964782 472.87527566767193Q1099.33606982955 476.39759898260775 1093.820853060111 476.39759898260775L1093.820853060111 476.39759898260775Q1091.1559373942055 476.39759898260775 1089.3252561976274 475.7255767712055L1089.3252561976274 475.7255767712055Q1080.4731015508805 472.87527566767193 1073.289415842788 472.87527566767193L1073.289415842788 472.87527566767193Q1060.7758988028845 472.87527566767193 1047.775744989207 480.8931958450916L1047.775744989207 480.8931958450916Q1045.5974660970755 482.3994525258207 1042.5154331965064 483.3032065342582Q1039.4334002959376 484.2301337223992 1036.7684846300322 484.2301337223992L1036.7684846300322 484.2301337223992Q1034.2657812220518 484.2301337223992 1032.7595245413227 483.3032065342582Q1031.2532678605935 482.3994525258207 1031.2532678605935 480.38338589161407L1031.2532678605935 480.38338589161407Q1031.2532678605935 479.22472690643775 1031.5776923764429 478.3904924371109L1031.5776923764429 478.3904924371109Q1036.4208869344793 464.8805286699558 1039.3407075771238 454.0354805687061Q1042.2605282197678 443.1904324674564 1043.2569749470194 431.9977866706538L1043.2569749470194 431.9977866706538Q1044.7632316277486 416.9815662227696 1044.7632316277486 409.98326595230503L1044.7632316277486 409.98326595230503Q1044.7632316277486 391.4678953691885 1037.6027190993595 381.6192939951904L1037.6027190993595 381.6192939951904Q1036.7684846300322 380.6228472679388 1036.7684846300322 378.954378329285L1036.7684846300322 378.954378329285Q1036.7684846300322 375.6174404519774 1041.426293750441 372.6976198093333Q1046.107276050553 369.77779916668914 1050.6028729130367 369.77779916668914L1050.6028729130367 369.77779916668914Q1053.615386274495 369.77779916668914 1054.936257517596 371.09867040979003L1054.936257517596 371.09867040979003Q1057.1145364097274 371.93290487911696 1057.7865586211296 373.7867592553989L1057.7865586211296 373.7867592553989Q1061.9577309677638 384.7940196145733 1069.3036289337815 392.371649377626Q1076.6263537200953 399.9724523203822 1086.6371673520184 399.9724523203822L1086.6371673520184 399.9724523203822Q1088.4910217283 399.9724523203822 1092.152384121457 399.30043010898L1092.152384121457 399.30043010898Q1094.4928752715132 398.97600559313065 1095.1648974829154 398.97600559313065L1095.1648974829154 398.97600559313065Q1097.9920254067456 398.97600559313065 1099.4055893686605 400.227357297121Q1100.8191533305758 401.4787090011113 1100.8191533305758 403.63381471353915L1100.8191533305758 403.63381471353915Q1100.8191533305758 405.9743058635952 1098.9189525948864 408.31479701365123Q1096.995578679494 410.65528816370727 1093.820853060111 411.65173489095883L1093.820853060111 411.65173489095883Q1086.9847650475713 413.9922260410149 1080.1486770350311 413.9922260410149L1080.1486770350311 413.9922260410149Q1071.968544599687 413.9922260410149 1064.4604343757446 410.65528816370727L1064.4604343757446 410.65528816370727Q1064.1128366801918 419.99407958422785 1063.6261999064177 424.67506188433987L1063.6261999064177 424.67506188433987L1062.444367741538 435.1725122900367Q1068.9560312382287 434.01385330486045 1075.467694734919 433.1796188355336L1075.467694734919 433.1796188355336L1077.808185884975 433.0174065776089Q1084.4820616395905 433.0174065776089 1084.4820616395905 437.51300344009275L1084.4820616395905 437.51300344009275Q1084.4820616395905 440.525516801551 1081.1451237622828 442.8428347719035Q1077.808185884975 445.1833259219595 1074.309035749743 445.85534813336176L1074.309035749743 445.85534813336176Q1069.1182434961534 446.8517948606133 1060.1270497711857 448.0336270254931L1060.1270497711857 448.0336270254931Q1058.2731953949037 456.1905862811339 1056.1180896824758 463.37427198922666L1056.1180896824758 463.37427198922666Q1067.12535004165 459.3653119005168 1078.4802080963773 459.3653119005168L1078.4802080963773 459.3653119005168Q1090.9937251362808 459.3653119005168 1103.5072421761847 464.0462942006289L1103.5072421761847 464.0462942006289ZM1241.6425663888972 405.30228365219295L1242.6390131161488 405.1400713942683Q1245.1417165241296 405.1400713942683 1246.6479732048583 406.97075259084676L1246.6479732048583 406.97075259084676Q1248.3164421435122 408.8246069671288 1248.3164421435122 412.1615448444364L1248.3164421435122 412.1615448444364Q1248.3164421435122 413.8300137830902 1247.64441993211 416.49492944899555L1247.64441993211 416.49492944899555Q1246.810185462783 420.5038895377054 1244.4928674924308 423.91034695412355Q1242.1523763423747 427.3399775502453 1238.9776507229917 429.3328710047484L1238.9776507229917 429.3328710047484Q1236.9847572684885 430.51470316962815 1234.9686906342822 430.9318204042916Q1232.975797179779 431.3489376389551 1229.9632838183206 431.67336215480447L1229.9632838183206 431.67336215480447L1228.8046248331443 431.8355744127291L1228.2948148796668 431.8355744127291L1228.8046248331443 444.5113037105573Q1230.1254960762453 444.18687919470796 1230.6353060297229 444.18687919470796L1230.6353060297229 444.18687919470796Q1231.4695404990498 444.18687919470796 1232.4659872263014 444.5113037105573L1232.4659872263014 444.5113037105573Q1235.3162883298346 445.0211136640349 1236.474947315011 447.52381707201556L1236.474947315011 447.52381707201556Q1237.4713940422625 449.35449826859406 1237.4713940422625 452.01941393449937L1237.4713940422625 452.01941393449937Q1237.4713940422625 453.52567061522853 1237.1469695264132 455.8661617652846L1237.1469695264132 455.8661617652846Q1236.9847572684885 456.3759717187621 1236.9847572684885 457.210206188089L1236.9847572684885 457.210206188089Q1236.3127350570862 463.21205973130196 1234.7137856575432 468.05525428933873Q1233.1380094377037 472.87527566767193 1229.9632838183206 477.04644801430646L1229.9632838183206 477.04644801430646Q1222.617385852303 486.06081491897766 1215.943510097688 486.06081491897766L1215.943510097688 486.06081491897766Q1214.7848511125117 486.06081491897766 1214.1128289011094 485.89860266105296L1214.1128289011094 485.89860266105296Q1210.2892542500276 485.0643681917261 1208.8525171084093 481.8896425723432Q1207.438953146494 478.7149169529602 1206.9523163727204 474.72913004395394L1206.9523163727204 474.72913004395394Q1205.608271949916 464.5329309744029 1205.608271949916 451.69498941865004L1205.608271949916 451.69498941865004L1205.7704842078406 438.5094501673443L1205.7704842078406 437.1885789242434L1205.9326964657653 434.5004900786345L1199.444206148778 435.6823222435143Q1194.4387993328164 436.8409812286905 1190.429839244107 438.185025651495L1190.429839244107 438.185025651495L1189.0857948213024 438.8570478628972Q1187.0929013667992 452.01941393449937 1186.5830914133217 459.0408873846675L1186.5830914133217 459.0408873846675Q1186.2586668974723 461.7058030505729 1186.2586668974723 467.03563438238365L1186.2586668974723 467.03563438238365Q1186.420879155397 467.7076565937859 1186.420879155397 469.37612553243963L1186.420879155397 469.37612553243963Q1186.420879155397 470.8823822131688 1186.2586668974723 471.71661668249567L1186.2586668974723 471.71661668249567Q1186.2586668974723 474.89134230187864 1184.4975052400046 477.6489506865981Q1182.7595167622399 480.38338589161407 1179.9092156587067 481.7274303144185L1179.9092156587067 481.7274303144185Q1177.7541099462787 482.72387704167005 1175.251406538298 482.72387704167005L1175.251406538298 482.72387704167005Q1170.7326364961104 482.72387704167005 1167.5579108767274 479.7345368599153L1167.5579108767274 479.7345368599153Q1163.8965484835708 476.21221354497953 1163.8965484835708 470.37257225969125L1163.8965484835708 470.37257225969125L1164.0587607414955 467.8698688517105Q1164.568570694973 459.2030996425922 1165.9821346568879 450.6058499725844Q1167.3956986188032 442.0086003025766 1169.8984020267835 430.0048932161506L1169.8984020267835 430.0048932161506Q1171.9144686609902 419.3220573728256 1172.7487031303172 413.9922260410149L1172.7487031303172 413.9922260410149Q1175.0660211006698 399.8102400624575 1176.0856410076249 388.1309574918809L1176.0856410076249 388.1309574918809Q1176.7344900393236 380.7850595258635 1176.9198754769518 374.62099372472585L1176.9198754769518 374.62099372472585L1176.9198754769518 373.9489715133236Q1177.0820877348765 370.44982137809137 1177.6614172274644 368.10933022803533Q1178.2407467200528 365.7688390779793 1180.2568133542595 363.77594562347616L1180.2568133542595 363.77594562347616L1180.2568133542595 363.77594562347616Q1183.0839412780892 360.9256445199425 1187.255113624724 360.9256445199425L1187.255113624724 360.9256445199425Q1191.5884982292832 360.9256445199425 1194.4387993328164 363.77594562347616L1194.4387993328164 363.77594562347616Q1197.2659272566466 366.60307354730617 1197.2659272566466 371.77069262119227L1197.2659272566466 371.77069262119227Q1197.2659272566466 374.43560828709764 1197.103714998722 375.6174404519774L1197.103714998722 375.6174404519774L1196.9415027407972 376.4516749213043L1195.9218828338421 388.80297970328314Q1195.435246060068 398.62840789757774 1194.2534138951887 406.3219035591481L1194.2534138951887 406.3219035591481Q1193.9289893793389 409.6588414364557 1192.9325426520877 414.98867276826644L1192.9325426520877 414.98867276826644Q1195.2730338021433 414.1544382989395 1200.765077391879 412.6481816182104L1200.765077391879 412.6481816182104L1201.7615241191306 412.32375710236107Q1204.2642275271114 411.8139471488835 1206.1180819033934 411.1419249374813L1206.1180819033934 411.1419249374813Q1206.1180819033934 399.30043010898 1205.9326964657653 393.4607888236917L1205.9326964657653 393.4607888236917L1205.9326964657653 393.1363643078423Q1205.9326964657653 378.2823561178828 1206.2802941613181 370.93645815186534L1206.2802941613181 370.93645815186534Q1206.7669309350922 359.6047732768416 1214.7848511125117 353.927344249478L1214.7848511125117 353.927344249478L1214.7848511125117 353.927344249478Q1217.6119790363418 351.91127761527133 1220.6244923978002 351.91127761527133L1220.6244923978002 351.91127761527133Q1223.2894080637052 351.91127761527133 1225.1200892602837 353.76513199155335L1225.1200892602837 353.76513199155335Q1227.1361558944905 356.267835399534 1227.1361558944905 360.25362230854034L1227.1361558944905 360.25362230854034Q1227.1361558944905 361.92209124719415 1226.7885581989376 364.61018009280303L1226.7885581989376 364.61018009280303Q1226.626345941013 365.25902912450175 1226.626345941013 366.44086128938153L1226.626345941013 366.44086128938153Q1226.4641336830882 368.27154248595997 1226.4641336830882 372.2805025746698L1226.4641336830882 372.2805025746698Q1226.4641336830882 375.26984275642457 1226.7885581989376 381.6192939951904L1226.7885581989376 381.6192939951904L1226.9739436365658 386.30027629530247L1227.1361558944905 393.1363643078423L1227.6227926682645 407.15613802847497L1240.4839074037209 405.48766908982117L1241.6425663888972 405.30228365219295ZM1256.4965745788563 391.9545321429626Q1256.658786836781 388.61759426565493 1261.3397691368932 386.0453713185637Q1265.997578257302 383.4499751917689 1270.6785605574137 383.4499751917689L1270.6785605574137 383.4499751917689Q1273.3434762233192 383.4499751917689 1275.011945161973 384.53911463783453Q1276.6804141006269 385.62825408390023 1276.5182018427022 387.96874523395627L1276.5182018427022 387.96874523395627L1271.6750072846653 478.5527046950356Q1271.5127950267406 482.0518548302678 1266.8318127266289 484.6472509570627Q1262.1740036062201 487.24264708385743 1257.493021306108 487.24264708385743L1257.493021306108 487.24264708385743Q1251.3289555049705 487.24264708385743 1251.4911677628952 482.3994525258207L1251.4911677628952 482.3994525258207L1256.4965745788563 391.9545321429626ZM1256.1721500630074 369.94001142461383Q1255.8245523674545 372.2805025746698 1257.4235017669976 373.43916155984607Q1258.9992779868371 374.62099372472585 1261.6641936527426 374.62099372472585L1261.6641936527426 374.62099372472585Q1266.18296369493 374.62099372472585 1270.8407728153384 372.1182903167451Q1275.5217551154506 369.61558690876444 1276.0083918892246 366.0932635938286L1276.0083918892246 366.0932635938286Q1277.352436312029 357.7509189005596 1277.8622462655067 353.57974655392513L1277.8622462655067 353.57974655392513Q1278.5110952972054 349.40857420729066 1272.671454011917 349.40857420729066L1272.671454011917 349.40857420729066Q1268.1758571494333 349.40857420729066 1263.3326625913965 351.91127761527133Q1258.4894680333596 354.413981023252 1258.1650435175106 357.5887066426349L1258.1650435175106 357.5887066426349L1256.1721500630074 369.94001142461383ZM1359.4318388219149 423.00659294568607Q1359.617224259543 423.16880520361076 1359.617224259543 423.4932297194601L1359.617224259543 423.4932297194601Q1360.7758832447194 434.01385330486045 1360.7758832447194 446.1797726492111L1360.7758832447194 446.1797726492111Q1360.7758832447194 459.7129095960697 1359.1074143060655 472.041041198345L1359.1074143060655 472.041041198345Q1358.597604352588 475.3779790756526 1353.9397952321792 477.97337520244747Q1349.2588129320675 480.5687713292422 1344.7632160695835 480.5687713292422L1344.7632160695835 480.5687713292422Q1342.098300403678 480.5687713292422 1340.5920437229488 479.4796318831765Q1339.0857870422196 478.3904924371109 1339.2479993001443 476.05000128705484L1339.2479993001443 476.05000128705484Q1340.9164682387982 460.7093563233213 1340.9164682387982 448.86786149482003L1340.9164682387982 448.86786149482003Q1335.748849164912 462.03022756642224 1326.8966945181655 471.13728718990757Q1318.0677130511226 480.2211736336894 1306.388430480546 480.2211736336894L1306.388430480546 480.2211736336894Q1303.8857270725653 480.2211736336894 1301.3830236645845 479.7345368599153L1301.3830236645845 479.7345368599153Q1290.5379755633348 477.88068248363334 1285.8569932632226 469.7932427671031Q1281.1991841428144 461.7058030505729 1281.1991841428144 449.8643082220716L1281.1991841428144 449.8643082220716Q1281.1991841428144 438.185025651495 1285.0227587938957 424.4896764467117L1285.0227587938957 424.4896764467117Q1288.035272155354 414.1544382989395 1293.944432979753 404.56074190168016Q1299.8767669838553 394.9670455044208 1308.3813239350488 388.80297970328314Q1316.8858808862428 382.61574072244196 1327.0820799557937 382.61574072244196L1327.0820799557937 382.61574072244196Q1335.748849164912 382.61574072244196 1339.7578092536219 385.95267859974956Q1343.7667693423318 389.28961647705717 1343.7667693423318 394.8048332464961L1343.7667693423318 394.8048332464961Q1343.7667693423318 401.640921259036 1338.7613625263702 409.8905732334909Q1333.7559557104091 418.16339838764935 1328.0785266830453 422.4967829922085L1328.0785266830453 422.4967829922085Q1326.4100577443915 423.6554419773848 1323.5597566408578 424.4201569076011Q1320.732628717028 425.16169865811395 1318.0677130511226 425.16169865811395L1318.0677130511226 425.16169865811395Q1315.0551996896643 425.16169865811395 1313.2245184930857 424.327464188787Q1311.3938372965072 423.4932297194601 1311.3938372965072 421.986973038731L1311.3938372965072 421.986973038731Q1311.3938372965072 419.83186732630315 1314.730775173815 416.9815662227696L1314.730775173815 416.9815662227696Q1316.8858808862428 415.15088502619113 1320.6399359982138 409.056338764164Q1324.3939911101847 402.9849656818405 1324.3939911101847 399.4626423669047L1324.3939911101847 399.4626423669047Q1324.3939911101847 396.3110899272253 1320.8948409749528 396.3110899272253L1320.8948409749528 396.3110899272253Q1315.8894341589912 396.3110899272253 1309.053346146451 411.32731037510945L1309.053346146451 411.32731037510945Q1305.2065983156663 418.8354205990516 1303.3759171190877 427.6644020660946L1303.3759171190877 427.6644020660946Q1301.0354259690316 438.3472379094197 1301.0354259690316 447.36160481409087L1301.0354259690316 447.36160481409087Q1301.0354259690316 463.53648424715135 1309.8875806157785 465.20495318580515L1309.8875806157785 465.20495318580515Q1313.3867307510104 465.7147631392827 1316.8163613471324 459.944641393105Q1320.2228187635505 454.19769282663077 1322.7255221715309 446.3651580868393L1322.7255221715309 446.3651580868393Q1320.5704164591034 447.52381707201556 1316.237031854544 449.5167105265187L1316.237031854544 449.5167105265187Q1313.548943008935 450.6985426913985 1310.3973905692555 450.6985426913985L1310.3973905692555 450.6985426913985Q1307.0604526919483 450.6985426913985 1305.3919837532944 449.0300737527447L1305.3919837532944 449.0300737527447Q1304.3723638463393 447.68602932994025 1304.3723638463393 446.527370344764L1304.3723638463393 446.527370344764Q1304.3723638463393 445.0211136640349 1305.2992910344801 443.6075497021198Q1306.2262182226214 442.1939857402048 1307.5470894657224 441.3597512708779L1307.5470894657224 441.3597512708779Q1328.7505488944475 426.8301675967677 1347.9379416889665 418.16339838764935L1347.9379416889665 418.16339838764935Q1349.4210251899917 417.4913761762471 1351.5993040821231 417.4913761762471L1351.5993040821231 417.4913761762471Q1354.9362419594308 417.4913761762471 1357.4389453674116 419.06715239608684Q1359.941648775392 420.66610179563 1359.4318388219149 423.00659294568607L1359.4318388219149 423.00659294568607ZM1404.4805001655673 391.7923198850379Q1404.4805001655673 388.2931697498056 1408.83705794983 385.7904663418249Q1413.1704425543894 383.2877629338442 1417.8282516747977 383.2877629338442L1417.8282516747977 383.2877629338442Q1420.6785527783313 383.2877629338442 1422.3470217169852 384.3769023799099Q1424.015490655639 385.46604182597554 1423.8532783977143 387.78335979632806L1423.8532783977143 387.78335979632806Q1423.5056807021615 402.15073121251356 1423.181256186312 431.16355220132687L1423.181256186312 431.16355220132687L1422.3470217169852 474.72913004395394Q1422.1848094590605 478.3904924371109 1417.7587321356873 481.0554081030163Q1413.332654812314 483.7203237689217 1408.651672512202 483.7203237689217L1408.651672512202 483.7203237689217Q1405.662332330447 483.7203237689217 1403.9011706729793 482.4689720649313Q1402.1631821952146 481.21762036094094 1402.1631821952146 478.7149169529602L1402.1631821952146 478.7149169529602L1402.8120312269134 451.3705649028007Q1402.1631821952146 451.5327771607254 1400.8191377724106 451.5327771607254L1400.8191377724106 451.5327771607254L1397.482199895103 451.3705649028007Q1396.3235409099266 451.1851794651725 1393.9830497598705 451.1851794651725L1393.9830497598705 451.1851794651725Q1392.8012175949907 451.1851794651725 1391.1327486563368 451.5327771607254L1391.1327486563368 451.5327771607254Q1390.29851418701 468.2174665472634 1388.8154306859847 479.89674911784L1388.8154306859847 479.89674911784Q1388.4678329904314 483.3958992530723 1383.7173311512088 486.06081491897766Q1378.9668293119862 488.725730584883 1374.285847011874 488.725730584883L1374.285847011874 488.725730584883Q1371.4587190880443 488.725730584883 1369.8597696885013 487.5670715997068Q1368.2839934686613 486.4084126145305 1368.446205726586 484.0679214644745L1368.446205726586 484.0679214644745Q1370.9489091345667 461.0337808391707 1371.620931345969 442.0086003025766L1371.620931345969 442.0086003025766L1371.7831436038937 437.0031934866152Q1372.2929535573712 422.4967829922085 1372.2929535573712 417.8158006920965L1372.2929535573712 417.8158006920965Q1372.2929535573712 402.7995802442123 1370.4622723607927 399.30043010898L1370.4622723607927 399.30043010898Q1367.7741835151837 399.4626423669047 1366.3606195532689 398.3966761005425Q1364.9470555913535 397.30753665447685 1364.9470555913535 395.63906771582305L1364.9470555913535 395.63906771582305Q1364.9470555913535 393.97059877716924 1366.291100014158 392.13991758059075Q1367.611971257259 390.2860632043088 1369.6280378914657 389.12740421913253L1369.6280378914657 389.12740421913253Q1375.9543159505279 385.62825408390023 1380.4730859927154 385.62825408390023L1380.4730859927154 385.62825408390023Q1384.1344483858725 385.62825408390023 1386.9615763097022 387.96874523395627L1386.9615763097022 387.96874523395627Q1391.318134093965 391.6301076271132 1391.318134093965 403.3093901976898L1391.318134093965 403.3093901976898L1391.1327486563368 411.65173489095883Q1391.6425586098144 420.1562918421525 1391.6425586098144 428.8462342309744L1391.6425586098144 428.8462342309744L1391.4803463518897 438.671662425269Q1392.4767930791413 438.3472379094197 1394.6550719712727 438.671662425269Q1396.8101776837007 439.01926012082185 1397.9920098485804 439.01926012082185L1397.9920098485804 439.01926012082185Q1399.1506688337568 439.01926012082185 1400.656925514486 438.7643551440831Q1402.1631821952146 438.5094501673443 1403.321841180391 438.3472379094197L1403.321841180391 438.3472379094197L1404.4805001655673 391.7923198850379ZM1482.898540282296 391.9545321429626Q1483.0839257199245 388.61759426565493 1487.672215301222 386.0453713185637Q1492.2605048825203 383.4499751917689 1496.9183140029286 383.4499751917689L1496.9183140029286 383.4499751917689Q1499.583229668834 383.4499751917689 1501.251698607488 384.53911463783453Q1502.9201675461418 385.62825408390023 1502.757955288217 387.96874523395627L1502.757955288217 387.96874523395627Q1502.4335307723677 394.2950232930186 1502.4335307723677 398.1417711238037L1502.4335307723677 398.1417711238037Q1501.5992963030408 419.83186732630315 1499.5137101297232 435.01030003211207Q1497.4281239564061 450.18873273792093 1490.2444382483136 463.53648424715135Q1483.0839257199245 476.88423575638177 1468.9019397413672 481.0554081030163L1468.9019397413672 481.0554081030163Q1464.0587451833303 482.3994525258207 1459.725360578771 482.3994525258207L1459.725360578771 482.3994525258207Q1449.042524735446 482.3994525258207 1440.9550850189157 476.05000128705484Q1432.844472122682 469.72372322799254 1431.6858131375056 458.87867512674285L1431.6858131375056 458.87867512674285Q1431.3613886216567 454.5221173424801 1431.3613886216567 452.3670116300523L1431.3613886216567 452.3670116300523Q1431.3613886216567 440.84994131740035 1434.8605387568887 428.8462342309744Q1438.359688892121 416.8193539648449 1445.033564646736 399.8102400624575L1445.033564646736 399.8102400624575Q1447.0264581012393 395.29147002027014 1449.52916150922 388.2931697498056L1449.52916150922 388.2931697498056Q1450.5487814161752 385.46604182597554 1454.6272610439955 383.54266791058296Q1458.7057406718159 381.6192939951904 1462.7147007605258 381.6192939951904L1462.7147007605258 381.6192939951904Q1465.3796164264309 381.6192939951904 1467.0480853650847 382.7084334412561Q1468.7165543037386 383.79757288732173 1468.7165543037386 385.7904663418249L1468.7165543037386 385.7904663418249Q1468.7165543037386 386.4624885532271 1468.3921297878892 387.78335979632806L1468.3921297878892 387.78335979632806Q1465.055191910582 397.4697489124015 1463.2245107140034 402.31294347043826L1463.2245107140034 402.31294347043826Q1458.3813161559665 415.8229072375933 1455.716400490061 424.9067936813751Q1453.0514848241555 434.01385330486045 1452.031864917201 443.5148569833057L1452.031864917201 443.5148569833057Q1451.7074404013515 447.52381707201556 1451.7074404013515 449.8643082220716L1451.7074404013515 449.8643082220716Q1451.7074404013515 459.7129095960697 1456.550634959388 464.0462942006289L1456.550634959388 464.0462942006289Q1458.056891640117 465.55255088135806 1460.559595048098 466.8039025853484Q1463.0622984560787 468.05525428933873 1465.2174041685062 468.2174665472634L1465.2174041685062 468.2174665472634L1466.561448591311 468.54189106311276Q1466.7236608492358 468.54189106311276 1467.2334708027129 468.05525428933873L1467.2334708027129 468.05525428933873Q1471.4046431493475 465.3671654437298 1473.9768660964392 458.9481946658534Q1476.5722622232338 452.52922388797697 1477.4064966925607 447.52381707201556Q1478.2407311618872 442.51841025605415 1479.7469878426168 431.67336215480447L1479.7469878426168 431.67336215480447Q1480.9056468277931 422.82120750805785 1481.6471885783058 412.32375710236107Q1482.4119035085218 401.8031335169607 1482.898540282296 391.9545321429626L1482.898540282296 391.9545321429626ZM1580.1795486776941 384.956231872498Q1580.5039731935435 385.46604182597554 1580.8515708890964 386.7869130690765L1580.8515708890964 386.7869130690765Q1582.8444643435992 407.31835028639966 1588.0120834174854 451.69498941865004L1588.0120834174854 451.69498941865004L1590.1903623096168 470.7201699552441Q1590.7001722630944 474.3815323484011 1586.1118826817965 477.2318334519346Q1581.5235931004986 480.0589613757647 1576.518186284537 480.0589613757647L1576.518186284537 480.0589613757647Q1573.5056729230787 480.0589613757647 1571.4200867497616 478.80760967177434Q1569.3345005764445 477.556257967784 1569.1722883185198 474.89134230187864L1569.1722883185198 474.89134230187864Q1566.9940094263884 451.69498941865004 1564.1668815025582 426.9923798546924L1564.1668815025582 426.9923798546924Q1559.6481114603707 436.6787689707658 1555.1525145978871 444.8589014061102L1555.1525145978871 444.8589014061102Q1554.480492386485 446.1797726492111 1552.6498111899064 447.52381707201556L1552.6498111899064 447.52381707201556Q1550.471532297775 449.5167105265187 1547.2272871392815 450.7680622305091Q1543.9830419807881 452.01941393449937 1540.9705286193298 452.01941393449937L1540.9705286193298 452.01941393449937Q1535.8029095454435 452.01941393449937 1534.1344406067901 448.5202637992671L1534.1344406067901 448.5202637992671Q1531.1219272453313 441.8463880446519 1528.132587063577 434.17606556278514L1528.132587063577 434.17606556278514L1527.29835259425 439.18147237874655Q1525.1200737021186 453.0390338414545 1521.4587113089615 474.89134230187864L1521.4587113089615 474.89134230187864Q1520.948901355484 478.3904924371109 1515.8508018207085 480.9858885639057Q1510.7758754656365 483.558111510997 1505.9326809075997 483.558111510997L1505.9326809075997 483.558111510997Q1503.2677652416946 483.558111510997 1501.7615085609655 482.56166478374536Q1500.2552518802363 481.56521805649385 1500.6028495757892 479.38693916436245L1500.6028495757892 479.38693916436245Q1509.431831042832 420.9905263114794 1514.4372378587937 393.298576565767L1514.4372378587937 393.298576565767Q1515.109260070196 389.79942643053477 1520.114666886157 387.13451076462934Q1525.1200737021186 384.44642191902045 1529.6156705646026 384.63180735664866L1529.6156705646026 384.63180735664866Q1532.3037594102116 384.28420966109576 1534.2039601459005 385.0489245913121Q1536.127334061293 385.7904663418249 1536.4749317568458 387.62114753840336L1536.4749317568458 387.62114753840336Q1540.6461041034804 406.48411581707273 1546.8101699046183 422.1723584763592L1546.8101699046183 422.1723584763592Q1553.9938556127108 405.9743058635952 1560.4823459296977 388.80297970328314L1560.4823459296977 388.80297970328314Q1561.5019658366527 385.95267859974956 1565.7426577223978 383.9597851452464Q1570.0065227878467 381.9437185110398 1574.177695134481 381.9437185110398L1574.177695134481 381.9437185110398Q1579.1831019504425 381.9437185110398 1580.1795486776941 384.956231872498L1580.1795486776941 384.956231872498Z " fill="#45649c" transform="matrix(0.5502309644624591,0,0,0.5502309644624591,0,71.06748049634948)"/></g></svg>